<svg xmlns="http://www.w3.org/2000/svg" width="160" height="240" fill="none" viewBox="0 0 160 240">
  <g class="Default_poster">
    <path fill="url(#a)" d="M0 0h160v240H0z" class="Rectangle 29"/>
    <path fill="#fff" d="M59.977 115.273V124h-1.022l-4.756-6.852h-.085V124h-1.057v-8.727h1.023l4.772 6.869h.086v-6.869h1.04Zm4.638 8.863c-.591 0-1.11-.14-1.556-.422a2.861 2.861 0 0 1-1.04-1.18c-.247-.506-.37-1.097-.37-1.773 0-.681.123-1.277.37-1.785.25-.509.597-.904 1.04-1.185.446-.281.965-.422 1.556-.422.59 0 1.108.141 1.55.422.447.281.793.676 1.04 1.185.25.508.376 1.104.376 1.785 0 .676-.125 1.267-.375 1.773a2.821 2.821 0 0 1-1.04 1.18c-.443.282-.96.422-1.551.422Zm0-.903c.449 0 .818-.115 1.108-.345.29-.23.504-.533.643-.908.14-.375.209-.781.209-1.219 0-.437-.07-.845-.209-1.223a2.066 2.066 0 0 0-.643-.916c-.29-.233-.66-.349-1.108-.349-.45 0-.818.116-1.108.349-.29.233-.505.539-.644.916-.139.378-.209.786-.209 1.223 0 .438.07.844.21 1.219.139.375.353.678.643.908.29.23.659.345 1.108.345Zm8.012.767v-8.727h2.949c.685 0 1.244.123 1.679.37.438.245.761.576.972.993.21.418.315.884.315 1.398 0 .514-.105.982-.315 1.402a2.341 2.341 0 0 1-.964 1.006c-.434.247-.991.37-1.67.37h-2.114v-.937h2.08c.469 0 .845-.081 1.13-.243a1.45 1.45 0 0 0 .617-.656c.13-.279.196-.592.196-.942 0-.349-.065-.662-.196-.937a1.396 1.396 0 0 0-.622-.648c-.287-.159-.668-.239-1.142-.239h-1.858V124h-1.057Zm10.07.136c-.591 0-1.11-.14-1.556-.422a2.862 2.862 0 0 1-1.04-1.18c-.247-.506-.37-1.097-.37-1.773 0-.681.123-1.277.37-1.785.25-.509.597-.904 1.04-1.185.446-.281.965-.422 1.556-.422.59 0 1.108.141 1.55.422.447.281.793.676 1.04 1.185.25.508.376 1.104.376 1.785 0 .676-.125 1.267-.375 1.773a2.822 2.822 0 0 1-1.04 1.18c-.443.282-.96.422-1.551.422Zm0-.903c.449 0 .818-.115 1.108-.345.29-.23.504-.533.643-.908.14-.375.209-.781.209-1.219 0-.437-.07-.845-.209-1.223a2.066 2.066 0 0 0-.643-.916c-.29-.233-.66-.349-1.108-.349-.45 0-.818.116-1.108.349-.29.233-.504.539-.644.916-.139.378-.208.786-.208 1.223 0 .438.07.844.208 1.219.14.375.354.678.644.908.29.23.659.345 1.108.345Zm9.137-4.313-.903.256a1.69 1.69 0 0 0-.252-.439 1.22 1.22 0 0 0-.443-.358c-.187-.093-.427-.14-.72-.14-.4 0-.734.092-1.001.277-.265.181-.397.413-.397.694 0 .25.091.448.273.593.182.144.466.265.852.362l.972.238c.585.142 1.021.36 1.308.652.287.29.43.664.43 1.121 0 .375-.108.71-.323 1.006a2.156 2.156 0 0 1-.895.699c-.384.17-.83.255-1.338.255-.668 0-1.22-.145-1.658-.434-.438-.29-.715-.713-.831-1.27l.955-.239c.09.352.262.617.515.793.256.176.59.264 1.002.264.468 0 .84-.099 1.116-.298.279-.202.418-.443.418-.725a.762.762 0 0 0-.239-.571c-.159-.156-.403-.272-.733-.349l-1.09-.256c-.6-.142-1.04-.362-1.322-.66-.278-.302-.417-.678-.417-1.13 0-.369.103-.696.31-.98.21-.284.496-.507.857-.669a3.006 3.006 0 0 1 1.236-.243c.648 0 1.156.142 1.525.426.373.285.637.66.793 1.125Zm4.48-1.465v.852h-3.392v-.852h3.392Zm-2.403-1.569h1.005v6.239c0 .284.041.497.124.639a.64.64 0 0 0 .324.281c.133.046.274.069.421.069.111 0 .202-.006.273-.017l.17-.035.205.904a2.184 2.184 0 0 1-.75.119c-.284 0-.562-.061-.835-.183a1.657 1.657 0 0 1-.673-.558c-.176-.25-.264-.566-.264-.946v-6.512Zm6.59 8.25c-.631 0-1.175-.139-1.632-.417a2.806 2.806 0 0 1-1.053-1.176c-.244-.506-.366-1.094-.366-1.765 0-.67.122-1.261.366-1.772.247-.515.591-.915 1.031-1.202.444-.29.96-.435 1.551-.435.341 0 .678.057 1.01.171.333.113.635.298.908.554.273.253.49.588.652 1.005.162.418.243.932.243 1.543v.426h-5.046v-.869h4.023c0-.369-.074-.699-.221-.989a1.673 1.673 0 0 0-.623-.686 1.746 1.746 0 0 0-.946-.251c-.4 0-.747.099-1.04.298-.29.196-.512.452-.668.767a2.251 2.251 0 0 0-.235 1.014v.58c0 .494.085.913.256 1.257.173.341.413.601.72.78a2.11 2.11 0 0 0 1.07.264c.264 0 .503-.037.716-.111.216-.077.402-.19.558-.341.156-.153.277-.344.362-.571l.972.273a2.16 2.16 0 0 1-.516.869c-.241.247-.54.441-.895.58a3.325 3.325 0 0 1-1.197.204Zm4.24-.136v-6.545h.971v.988h.069c.119-.324.335-.586.647-.788a1.906 1.906 0 0 1 1.057-.303 10.862 10.862 0 0 1 .528.017v1.023a3.308 3.308 0 0 0-.234-.038 2.292 2.292 0 0 0-.379-.03c-.318 0-.602.067-.852.2a1.502 1.502 0 0 0-.588.546 1.46 1.46 0 0 0-.214.788V124h-1.005Z" class="No Poster"/>
  </g>
  <defs>
    <radialGradient id="a" cx="0" cy="0" r="1" class="paint0_radial_151_155" gradientTransform="matrix(0 -145.5 161.667 0 80 240)" gradientUnits="userSpaceOnUse">
      <stop stop-color="#0F1B26"/>
      <stop offset="1" stop-color="#26323D"/>
    </radialGradient>
  </defs>
</svg>
