<svg
   width="60"
   height="60"
   viewBox="0 0 15.875 15.875"
   xmlns="http://www.w3.org/2000/svg">
   <path
      id="path15274"
      transform="translate(-0.03671545,1.1038763)"
      style="color:#000000;fill:#ffffff;stroke-width:1;stroke-linecap:round;-inkscape-stroke:none"
      d="M 3.1243824,3.3570917 A 0.52916502,0.52916502 0 0 0 2.5952157,3.8862584 0.52916502,0.52916502 0 0 0 3.1243824,4.4138748 H 9.1793097 A 0.52916502,0.52916502 0 0 0 9.7084764,3.8862584 0.52916502,0.52916502 0 0 0 9.1793097,3.3570917 Z m 0,1.9885091 A 0.52916502,0.52916502 0 0 0 2.5952157,5.8747675 0.52916502,0.52916502 0 0 0 3.1243824,6.4039341 H 9.1793097 A 0.52916502,0.52916502 0 0 0 9.7084764,5.8747675 0.52916502,0.52916502 0 0 0 9.1793097,5.3456008 Z m 7.9044266,0.1209228 a 0.52916502,0.52916502 0 0 0 -0.529166,0.5291666 v 1.267623 H 9.2340869 A 0.52916502,0.52916502 0 0 0 8.7049203,7.7924799 0.52916502,0.52916502 0 0 0 9.2340869,8.3200963 H 10.499643 V 9.587719 a 0.52916502,0.52916502 0 0 0 0.529166,0.529167 0.52916502,0.52916502 0 0 0 0.529167,-0.529167 V 8.3200963 h 1.266073 A 0.52916502,0.52916502 0 0 0 13.353215,7.7924799 0.52916502,0.52916502 0 0 0 12.824049,7.2633132 H 11.557976 V 5.9956902 A 0.52916502,0.52916502 0 0 0 11.028809,5.4665236 Z M 3.1243824,7.2633132 A 0.52916502,0.52916502 0 0 0 2.5952157,7.7924799 0.52916502,0.52916502 0 0 0 3.1243824,8.3200963 H 7.4450488 A 0.52916502,0.52916502 0 0 0 7.9742154,7.7924799 0.52916502,0.52916502 0 0 0 7.4450488,7.2633132 Z m 0,1.9885091 A 0.52916502,0.52916502 0 0 0 2.5952157,9.780989 0.52916502,0.52916502 0 0 0 3.1243824,10.310156 H 9.1793097 A 0.52916502,0.52916502 0 0 0 9.7084764,9.780989 0.52916502,0.52916502 0 0 0 9.1793097,9.2518223 Z" />
</svg>
