<svg xmlns="http://www.w3.org/2000/svg" width="341" height="240" fill="none" viewBox="0 0 341 240">
  <g class="Default_backdrop">
    <path fill="url(#a)" d="M0 0h341v240H0z" class="Rectangle 29"/>
    <path fill="#fff" d="M141.368 115.273V124h-1.022l-4.756-6.852h-.085V124h-1.057v-8.727h1.023l4.772 6.869h.086v-6.869h1.039Zm4.638 8.863c-.591 0-1.11-.14-1.556-.422a2.861 2.861 0 0 1-1.039-1.18c-.248-.506-.371-1.097-.371-1.773 0-.681.123-1.277.371-1.785.25-.509.596-.904 1.039-1.185.446-.281.965-.422 1.556-.422.591 0 1.108.141 1.551.422.446.281.793.676 1.04 1.185.25.508.375 1.104.375 1.785 0 .676-.125 1.267-.375 1.773a2.822 2.822 0 0 1-1.04 1.18c-.443.282-.96.422-1.551.422Zm0-.903c.449 0 .818-.115 1.108-.345.29-.23.504-.533.643-.908a3.48 3.48 0 0 0 .209-1.219c0-.437-.07-.845-.209-1.223a2.061 2.061 0 0 0-.643-.916c-.29-.233-.659-.349-1.108-.349-.449 0-.818.116-1.108.349-.29.233-.504.539-.644.916a3.518 3.518 0 0 0-.208 1.223c0 .438.069.844.208 1.219.14.375.354.678.644.908.29.23.659.345 1.108.345Zm8.012.767v-8.727h3.051c.608 0 1.11.105 1.505.315.395.207.689.487.882.84.193.349.29.737.29 1.163 0 .375-.067.685-.201.929-.13.244-.304.437-.52.579a2.36 2.36 0 0 1-.694.316v.085c.267.017.535.111.805.281.27.171.496.415.678.733.182.318.272.708.272 1.168 0 .437-.099.831-.298 1.18-.199.35-.513.627-.942.831-.429.205-.987.307-1.674.307h-3.154Zm1.057-.938h2.097c.69 0 1.18-.133 1.47-.4.292-.27.439-.597.439-.98a1.56 1.56 0 0 0-.226-.818 1.63 1.63 0 0 0-.644-.605c-.278-.154-.608-.231-.988-.231h-2.148v3.034Zm0-3.954h1.96c.318 0 .605-.063.861-.188.259-.125.463-.301.614-.528a1.4 1.4 0 0 0 .23-.801c0-.384-.134-.709-.401-.976-.267-.27-.69-.405-1.27-.405h-1.994v2.898Zm8.538 5.045c-.415 0-.791-.078-1.13-.234a1.94 1.94 0 0 1-.805-.686c-.199-.301-.298-.665-.298-1.091 0-.375.074-.679.221-.912.148-.236.346-.42.593-.554a3.12 3.12 0 0 1 .818-.298 10.1 10.1 0 0 1 .908-.162c.397-.051.72-.09.967-.115.25-.029.432-.075.545-.141.117-.065.175-.179.175-.341v-.034c0-.42-.115-.747-.345-.98-.227-.233-.573-.349-1.036-.349-.48 0-.856.105-1.129.315-.273.21-.464.435-.575.673l-.955-.341c.171-.397.398-.707.682-.929.287-.224.599-.38.938-.468.34-.091.676-.137 1.005-.137.21 0 .452.026.725.077.275.048.541.149.797.303.258.153.473.385.643.694.17.31.256.725.256 1.245V124h-1.006v-.886h-.051a1.77 1.77 0 0 1-.341.456 1.973 1.973 0 0 1-.635.413c-.264.114-.587.17-.967.17Zm.153-.903c.398 0 .733-.078 1.006-.234.275-.157.483-.358.622-.605.142-.248.213-.508.213-.78v-.921c-.043.051-.136.098-.281.141-.142.04-.307.075-.495.106a20.68 20.68 0 0 1-.963.128 3.91 3.91 0 0 0-.733.166 1.261 1.261 0 0 0-.545.337c-.136.148-.205.349-.205.605 0 .35.13.614.388.793.262.176.593.264.993.264Zm7.341.886c-.613 0-1.142-.145-1.585-.434a2.837 2.837 0 0 1-1.023-1.198c-.238-.508-.358-1.089-.358-1.743 0-.664.123-1.251.367-1.76.247-.511.591-.91 1.031-1.197.443-.29.96-.435 1.551-.435.461 0 .875.086 1.245.256.369.17.672.409.907.716.236.307.382.665.439 1.074h-1.005a1.562 1.562 0 0 0-.512-.793c-.261-.233-.613-.349-1.057-.349-.392 0-.735.102-1.031.307a2 2 0 0 0-.686.856c-.162.367-.243.797-.243 1.291 0 .506.08.946.239 1.321.162.375.389.666.682.874.295.207.642.311 1.039.311.262 0 .499-.045.712-.136.213-.091.393-.222.541-.392.148-.171.253-.375.316-.614h1.005a2.329 2.329 0 0 1-1.304 1.777c-.363.179-.787.268-1.27.268Zm4.982-2.522-.017-1.245h.204l2.864-2.914h1.244l-3.051 3.085h-.085l-1.159 1.074Zm-.938 2.386v-8.727h1.006V124h-1.006Zm4.16 0-2.557-3.239.716-.699 3.119 3.938h-1.278Zm4.57.136c-.546 0-1.027-.137-1.445-.413-.417-.278-.744-.67-.98-1.176-.236-.509-.354-1.109-.354-1.803 0-.687.118-1.284.354-1.789.236-.506.564-.897.984-1.172.421-.276.907-.414 1.458-.414.426 0 .763.071 1.01.213.25.14.44.299.571.478.133.176.237.321.311.434h.085v-3.221h1.006V124h-.972v-1.006h-.119c-.074.12-.179.27-.315.452-.137.179-.331.34-.584.482-.253.139-.59.208-1.01.208Zm.136-.903c.404 0 .744-.105 1.023-.315.278-.213.49-.507.635-.882.145-.378.217-.814.217-1.309 0-.488-.071-.916-.213-1.282-.142-.37-.352-.657-.631-.861-.278-.208-.622-.311-1.031-.311-.426 0-.781.109-1.065.328-.281.216-.493.51-.635.882a3.51 3.51 0 0 0-.209 1.244c0 .466.071.889.213 1.27.145.378.358.679.639.904.284.221.637.332 1.057.332Zm4.845.767v-6.545h.972v.988h.068c.119-.324.335-.586.648-.788a1.904 1.904 0 0 1 1.057-.303 10.862 10.862 0 0 1 .528.017v1.023a3.308 3.308 0 0 0-.234-.038c-.12-.02-.246-.03-.38-.03-.318 0-.602.067-.852.2a1.468 1.468 0 0 0-.801 1.334V124h-1.006Zm6.925.136c-.591 0-1.109-.14-1.555-.422a2.856 2.856 0 0 1-1.04-1.18c-.247-.506-.371-1.097-.371-1.773 0-.681.124-1.277.371-1.785.25-.509.596-.904 1.04-1.185.446-.281.964-.422 1.555-.422s1.108.141 1.551.422c.446.281.793.676 1.04 1.185.25.508.375 1.104.375 1.785 0 .676-.125 1.267-.375 1.773a2.822 2.822 0 0 1-1.04 1.18c-.443.282-.96.422-1.551.422Zm0-.903c.449 0 .818-.115 1.108-.345.29-.23.504-.533.643-.908.14-.375.209-.781.209-1.219 0-.437-.069-.845-.209-1.223a2.061 2.061 0 0 0-.643-.916c-.29-.233-.659-.349-1.108-.349-.449 0-.818.116-1.108.349-.29.233-.504.539-.643.916-.14.378-.209.786-.209 1.223 0 .438.069.844.209 1.219.139.375.353.678.643.908.29.23.659.345 1.108.345Zm4.501 3.222v-9h.972v1.039h.119a9.15 9.15 0 0 1 .307-.434c.133-.179.324-.338.571-.478.25-.142.588-.213 1.014-.213.551 0 1.037.138 1.457.414.421.275.749.666.985 1.172.236.505.354 1.102.354 1.789 0 .694-.118 1.294-.354 1.803-.236.506-.563.898-.98 1.176-.418.276-.899.413-1.445.413-.42 0-.757-.069-1.01-.208a1.878 1.878 0 0 1-.584-.482 6.475 6.475 0 0 1-.315-.452h-.085v3.461h-1.006Zm.989-5.728c0 .495.072.931.217 1.309.145.375.357.669.635.882.278.21.619.315 1.023.315.42 0 .771-.111 1.052-.332.284-.225.497-.526.64-.904.144-.381.217-.804.217-1.27 0-.46-.071-.875-.213-1.244a1.923 1.923 0 0 0-.635-.882c-.281-.219-.635-.328-1.061-.328-.409 0-.753.103-1.031.311-.279.204-.489.491-.631.861-.142.366-.213.794-.213 1.282Z" class="No Backdrop"/>
  </g>
  <defs>
    <radialGradient id="a" cx="0" cy="0" r="1" class="paint0_radial_151_157" gradientTransform="matrix(0 -145.5 344.552 0 170.5 240)" gradientUnits="userSpaceOnUse">
      <stop stop-color="#0F1B26"/>
      <stop offset="1" stop-color="#26323D"/>
    </radialGradient>
  </defs>
</svg>
